<?xml version="1.0" encoding="UTF-8" standalone="no"?>
<!-- Created with Inkscape (http://www.inkscape.org/) -->

<svg
   width="270.93332mm"
   height="270.93332mm"
   viewBox="0 0 270.93332 270.93332"
   version="1.1"
   id="svg5"
   xml:space="preserve"
   inkscape:version="1.2.1 (9c6d41e410, 2022-07-14)"
   sodipodi:docname="cardo.svg"
   inkscape:export-filename="icon.png"
   inkscape:export-xdpi="96"
   inkscape:export-ydpi="96"
   xmlns:inkscape="http://www.inkscape.org/namespaces/inkscape"
   xmlns:sodipodi="http://sodipodi.sourceforge.net/DTD/sodipodi-0.dtd"
   xmlns="http://www.w3.org/2000/svg"
   xmlns:svg="http://www.w3.org/2000/svg"><sodipodi:namedview
     id="namedview7"
     pagecolor="#ffffff"
     bordercolor="#000000"
     borderopacity="0.25"
     inkscape:showpageshadow="2"
     inkscape:pageopacity="0.0"
     inkscape:pagecheckerboard="0"
     inkscape:deskcolor="#d1d1d1"
     inkscape:document-units="mm"
     showgrid="false"
     inkscape:zoom="0.28930666"
     inkscape:cx="1515.6927"
     inkscape:cy="496.01347"
     inkscape:window-width="1920"
     inkscape:window-height="991"
     inkscape:window-x="-9"
     inkscape:window-y="-9"
     inkscape:window-maximized="1"
     inkscape:current-layer="layer1"
     showguides="true" /><defs
     id="defs2"><clipPath
       clipPathUnits="userSpaceOnUse"
       id="clipPath508"><rect
         style="fill:#6b21a8;fill-opacity:1;stroke-width:0.0569547"
         id="rect510"
         width="270.93329"
         height="270.93329"
         x="-124.01519"
         y="51.081829"
         rx="26.458332"
         ry="26.458332" /></clipPath><clipPath
       clipPathUnits="userSpaceOnUse"
       id="clipPath512"><rect
         style="fill:#6b21a8;fill-opacity:1;stroke-width:0.0569547"
         id="rect514"
         width="270.93329"
         height="270.93329"
         x="-124.01519"
         y="51.081829"
         rx="26.458332"
         ry="26.458332" /></clipPath><clipPath
       clipPathUnits="userSpaceOnUse"
       id="clipPath516"><rect
         style="fill:#6b21a8;fill-opacity:1;stroke-width:0.0569547"
         id="rect518"
         width="270.93329"
         height="270.93329"
         x="-124.01519"
         y="51.081829"
         rx="26.458332"
         ry="26.458332" /></clipPath><clipPath
       clipPathUnits="userSpaceOnUse"
       id="clipPath516-6"><rect
         style="fill:#6b21a8;fill-opacity:1;stroke-width:0.0569547"
         id="rect518-4"
         width="270.93329"
         height="270.93329"
         x="-124.01519"
         y="51.081829"
         rx="26.458332"
         ry="26.458332" /></clipPath><clipPath
       clipPathUnits="userSpaceOnUse"
       id="clipPath575"><rect
         style="fill:#6b21a8;fill-opacity:1;stroke-width:0.0713646"
         id="rect577"
         width="339.48129"
         height="339.48129"
         x="-158.28917"
         y="16.807848"
         rx="33.152473"
         ry="33.152473"
         clip-path="url(#clipPath516-6)"
         transform="matrix(0.85456852,0,0,0.85456852,1.6653694,27.130071)" /></clipPath><clipPath
       clipPathUnits="userSpaceOnUse"
       id="clipPath579"><rect
         style="fill:#6b21a8;fill-opacity:1;stroke-width:0.0713646"
         id="rect581"
         width="339.48129"
         height="339.48129"
         x="-158.28917"
         y="16.807848"
         rx="33.152473"
         ry="33.152473"
         clip-path="url(#clipPath516-6)"
         transform="matrix(0.85456852,0,0,0.85456852,1.6654277,27.130132)" /></clipPath><clipPath
       clipPathUnits="userSpaceOnUse"
       id="clipPath583"><rect
         style="fill:#6b21a8;fill-opacity:1;stroke-width:0.0713646"
         id="rect585"
         width="339.48129"
         height="339.48129"
         x="-158.28917"
         y="16.807848"
         rx="33.152473"
         ry="33.152473"
         clip-path="url(#clipPath516-6)"
         transform="matrix(0.85456852,0,0,0.85456852,1.6654277,27.130132)" /></clipPath></defs><g
     inkscape:label="Capa 1"
     inkscape:groupmode="layer"
     id="layer1"
     transform="translate(124.01517,-51.081848)"><rect
       style="fill:#6b21a8;fill-opacity:1;stroke-width:0.0713646"
       id="rect362"
       width="339.48129"
       height="339.48129"
       x="-158.28917"
       y="16.807848"
       rx="33.152473"
       ry="33.152473"
       clip-path="url(#clipPath583)"
       transform="matrix(1.1701812,0,0,1.1701812,-1.9488317,-31.747122)" /><path
       id="rect395"
       style="fill:#c6afe9;stroke-width:0.340498"
       d="m 11.451507,148.64592 a 29.223528,20.166026 0 0 0 -29.154754,18.83993 H -66.590846 V 302.31412 H 89.49386 V 167.48585 H 40.610146 A 29.223528,20.166026 0 0 0 11.451507,148.64592 Z"
       clip-path="url(#clipPath579)"
       transform="matrix(1.1701812,0,0,1.1701812,-1.9488317,-31.747122)" /><path
       id="rect356"
       style="fill:#2d1650;stroke-width:0.0713646"
       d="m -125.13674,16.807796 c -18.36646,0 -33.15248,14.786021 -33.15248,33.152472 V 323.13668 c 0,18.36645 14.78602,33.15247 33.15248,33.15247 h 273.1764 c 18.36645,0 33.15247,-14.78602 33.15247,-33.15247 V 49.960268 c 0,-18.366451 -14.78602,-33.152472 -33.15247,-33.152472 z M 11.130292,76.813774 c 0.176536,0 0.32117,0.07844 0.32117,0.174832 0,0.09636 1.050572,3.490292 2.334916,7.542191 2.707047,8.540245 5.436572,18.283113 6.275009,22.399293 l 0.584703,2.8704 1.390199,-4.47558 c 1.778956,-5.72693 4.333976,-13.308424 6.228397,-18.481864 1.415923,-3.866705 2.081871,-4.759873 2.08563,-2.79918 0.0011,0.490677 0.229689,2.384146 0.508295,4.207522 1.182851,7.741265 1.852846,13.359282 2.237795,18.769992 l 0.409871,5.76283 1.477609,-3.14948 c 2.789105,-5.94383 10.605877,-21.549115 10.79399,-21.549115 0.262881,0 -0.145862,22.942655 -0.484337,27.185035 -0.152792,1.91456 -0.239424,3.52543 -0.192311,3.57943 0.04711,0.054 2.969275,-4.00552 6.49322,-9.0211 3.523944,-5.01558 6.444127,-9.08185 6.489987,-9.03599 0.126391,0.12639 -1.387756,15.52445 -1.747632,17.77154 l -0.1826,1.13961 1.435532,-1.16162 c 0.789582,-0.63882 2.568577,-1.9935 3.953688,-3.01028 l 2.51882,-1.84863 -1.724326,4.19132 c -0.948125,2.30541 -2.577134,6.2806 -3.620225,8.83332 -5.264183,12.88307 -11.055356,20.32545 -19.60981,25.20042 -1.425796,0.81252 -3.524445,1.78756 -4.663366,2.16657 l -2.070732,0.68894 1.659558,2.05067 c 2.87025,3.54773 5.2662,9.26427 5.2662,12.56427 v 1.25616 h -9.879697 c -10.381476,0 -10.674842,0.0411 -10.674842,1.49187 0,1.44688 0.311485,1.49185 10.343309,1.49185 11.399432,0 10.874271,-0.18148 10.874271,3.74974 0,1.9811 -0.123546,2.55646 -0.675997,3.14948 -0.664833,0.7136 -0.832723,0.72603 -10.194377,0.73104 -5.235126,0.003 -9.678238,0.11465 -9.87387,0.24864 -0.64783,0.4436 -0.761427,1.31784 -0.263545,2.02865 0.480954,0.6867 0.691209,0.70125 10.200867,0.70125 11.384483,0 10.806922,-0.18314 10.806922,3.42403 0,3.68418 0.449717,3.53799 -10.874271,3.53799 -10.031824,0 -10.343309,0.045 -10.343309,1.49187 0,1.44687 0.311485,1.49185 10.343309,1.49185 11.452923,0 10.874271,-0.20875 10.874271,3.9155 0,2.14792 -0.115402,2.71345 -0.675997,3.31524 l -0.675346,0.72586 H 11.604918 c -26.719458,0 -27.013502,-0.008 -27.681016,-0.67471 -0.663242,-0.66324 -0.673141,-0.95701 -0.580168,-17.32217 l 0.09448,-16.64746 0.90328,-2.65219 c 0.889185,-2.61044 3.091119,-6.63469 4.735878,-8.65591 l 0.838525,-1.03084 -2.0785,-0.7511 c -7.029445,-2.541 -14.180205,-8.82957 -18.664454,-16.41437 -2.423905,-4.09986 -3.568664,-6.56649 -6.585817,-14.19405 -1.573138,-3.97698 -3.157152,-7.81285 -3.51986,-8.52382 -0.362708,-0.71095 -0.659169,-1.36899 -0.659169,-1.46272 0,-0.0937 1.787352,1.16804 3.971819,2.80437 2.184455,1.63634 4.044619,2.9753 4.133707,2.9753 0.08846,0 0.09297,-0.18648 0.01002,-0.41441 -0.0832,-0.22792 -0.526751,-4.06946 -0.986154,-8.53676 -0.459402,-4.46729 -0.927237,-8.64449 -1.039256,-9.28269 -0.130789,-0.74522 -0.08971,-1.04172 0.11465,-0.82881 0.383232,0.39931 3.103974,4.29448 9.680256,13.85865 1.717095,2.49721 3.1724,4.49087 3.23366,4.4296 0.06127,-0.0613 -0.04611,-3.52988 -0.238924,-7.70795 -0.19285,-4.17805 -0.305445,-11.102453 -0.249937,-15.387411 l 0.100993,-7.790834 6.163641,12.375845 6.164294,12.37649 0.222747,-4.91718 c 0.261364,-5.75988 0.8763777,-11.561851 2.0325272,-19.179218 0.457949,-3.017229 0.8414945,-5.667451 0.8527715,-5.889108 0.068539,-1.391765 5.3086648,13.862893 7.63413294,22.223816 0.62125339,2.23365 1.21445196,4.06118 1.31832626,4.06118 0.1038742,0 0.4594901,-1.15619 0.7899582,-2.56932 C 4.4144753,97.434576 10.556465,76.813774 11.13058,76.813774 Z M 54.689538,189.53479 c 1.688001,0.0153 3.401964,0.93014 4.33573,2.86134 l 0.663041,1.37143 2.895022,0.12041 c 2.755926,0.11427 2.946371,0.17147 3.975704,1.20113 1.007016,1.00736 1.089176,1.26001 1.19919,3.68238 0.200744,4.42067 -0.980754,5.7364 -5.400235,6.01083 l -2.669681,0.16576 -0.201371,5.63593 c -0.110766,3.09974 -0.457272,6.97291 -0.769885,8.60733 -3.93483,20.57214 -19.885459,36.02841 -40.717978,39.45534 l -1.243221,0.20396 v 9.37271 9.37269 l 4.889998,0.40533 c 10.459388,0.86775 21.240849,3.10589 24.540592,5.09397 2.204604,1.32826 2.768695,4.34304 1.168116,6.24522 -0.49292,0.58581 -1.383545,1.26905 -1.978799,1.51777 -0.890474,0.37205 -6.886087,0.44852 -33.831062,0.43123 -20.8718884,-0.0134 -33.049012,-0.14092 -33.577242,-0.35094 -3.074102,-1.22221 -3.915596,-4.94428 -1.633658,-7.2262 2.194204,-2.19422 13.305281,-4.72032 25.0890345,-5.70392 l 4.7242247,-0.39433 v -9.38177 -9.38176 l -1.2432085,-0.21756 c -5.58267227,-0.97924 -9.427687,-2.16204 -13.8955591,-4.27421 -11.6282056,-5.4972 -20.7640546,-15.72289 -24.9401146,-27.91543 -1.761013,-5.14148 -2.409519,-8.95222 -2.642479,-15.52791 l -0.211094,-5.96745 -2.935807,-0.17547 c -2.873496,-0.17211 -2.959315,-0.20211 -4.061171,-1.40445 -1.085305,-1.1842 -1.125376,-1.32432 -1.125376,-3.90189 0,-4.48123 1.102483,-5.62426 5.424192,-5.62426 h 2.473486 l 0.697361,-1.40898 c 0.383595,-0.77494 1.085655,-1.69055 1.560495,-2.03447 1.110252,-0.80417 3.473373,-1.06894 4.764383,-0.53421 1.422915,0.5894 2.650899,2.16489 2.650899,3.40137 0,0.60937 0.301662,1.35229 0.738159,1.81691 0.647066,0.68876 0.739663,1.14823 0.745928,3.7206 0.0063,2.57673 -0.08871,3.06526 -0.780899,4.00354 -0.779959,1.05733 -0.786513,1.13471 -0.617068,7.2411 0.151826,5.47158 0.286136,6.61474 1.181698,10.0733 1.666249,6.43488 5.062298,12.46014 9.822071,17.42706 3.498233,3.65049 6.206369,5.64915 10.6249856,7.84134 4.3237011,2.14511 8.1754194,3.30717 12.5972936,3.80024 1.7780419,0.19826 3.3662158,0.44263 3.5289178,0.54325 0.162716,0.10049 1.449479,0.0178 2.8594,-0.18389 1.409934,-0.20169 3.600616,-0.51645 4.867982,-0.69996 4.931923,-0.7141 11.490964,-3.6057 16.207157,-7.14526 7.717808,-5.79231 13.371514,-14.89528 15.000197,-24.14951 0.671061,-3.81273 0.651514,-14.19746 -0.02782,-14.76126 -0.669093,-0.55527 -0.715066,-6.3648 -0.05563,-7.02419 0.24272,-0.24272 0.5417,-1.1776 0.664996,-2.07721 0.371316,-2.70911 2.498909,-4.17674 4.66918,-4.15701 z M 11.63989,205.44538 h 26.893651 l 0.631967,0.69997 c 0.547552,0.6071 0.628408,1.2132 0.611242,4.55846 -0.03396,6.60616 -1.331132,11.31229 -4.417952,16.02844 -4.202498,6.42074 -10.106667,10.75261 -17.065103,12.52089 -9.9158333,2.51981 -20.2865083,-0.56611 -27.3786406,-8.14761 -5.4322994,-5.80716 -7.6432054,-11.68619 -7.6432054,-20.32273 0,-4.07283 0.03985,-4.33308 0.736869,-4.82134 0.652165,-0.45681 3.826458,-0.51608 27.631172,-0.51608 z"
       clip-path="url(#clipPath575)"
       transform="matrix(1.1701812,0,0,1.1701812,-1.9487635,-31.747051)" /></g></svg>
