<?xml version="1.0" encoding="UTF-8" standalone="no"?>
<!-- Created with Inkscape (http://www.inkscape.org/) -->

<svg
   width="256mm"
   height="256mm"
   viewBox="0 0 256 256"
   version="1.1"
   id="svg5"
   xml:space="preserve"
   inkscape:version="1.2.1 (9c6d41e410, 2022-07-14)"
   sodipodi:docname="cardo.svg"
   inkscape:export-filename="icon.png"
   inkscape:export-xdpi="96"
   inkscape:export-ydpi="96"
   xmlns:inkscape="http://www.inkscape.org/namespaces/inkscape"
   xmlns:sodipodi="http://sodipodi.sourceforge.net/DTD/sodipodi-0.dtd"
   xmlns="http://www.w3.org/2000/svg"
   xmlns:svg="http://www.w3.org/2000/svg"><sodipodi:namedview
     id="namedview7"
     pagecolor="#ffffff"
     bordercolor="#000000"
     borderopacity="0.25"
     inkscape:showpageshadow="2"
     inkscape:pageopacity="0.0"
     inkscape:pagecheckerboard="0"
     inkscape:deskcolor="#d1d1d1"
     inkscape:document-units="mm"
     showgrid="false"
     inkscape:zoom="0.4091414"
     inkscape:cx="1292.9515"
     inkscape:cy="492.49477"
     inkscape:window-width="1920"
     inkscape:window-height="991"
     inkscape:window-x="-9"
     inkscape:window-y="-9"
     inkscape:window-maximized="1"
     inkscape:current-layer="layer1"
     showguides="true" /><defs
     id="defs2"><clipPath
       clipPathUnits="userSpaceOnUse"
       id="clipPath508"><rect
         style="fill:#6b21a8;fill-opacity:1;stroke-width:0.0569547"
         id="rect510"
         width="270.93329"
         height="270.93329"
         x="-124.01519"
         y="51.081829"
         rx="26.458332"
         ry="26.458332" /></clipPath><clipPath
       clipPathUnits="userSpaceOnUse"
       id="clipPath512"><rect
         style="fill:#6b21a8;fill-opacity:1;stroke-width:0.0569547"
         id="rect514"
         width="270.93329"
         height="270.93329"
         x="-124.01519"
         y="51.081829"
         rx="26.458332"
         ry="26.458332" /></clipPath><clipPath
       clipPathUnits="userSpaceOnUse"
       id="clipPath516"><rect
         style="fill:#6b21a8;fill-opacity:1;stroke-width:0.0569547"
         id="rect518"
         width="270.93329"
         height="270.93329"
         x="-124.01519"
         y="51.081829"
         rx="26.458332"
         ry="26.458332" /></clipPath><clipPath
       clipPathUnits="userSpaceOnUse"
       id="clipPath516-6"><rect
         style="fill:#6b21a8;fill-opacity:1;stroke-width:0.0569547"
         id="rect518-4"
         width="270.93329"
         height="270.93329"
         x="-124.01519"
         y="51.081829"
         rx="26.458332"
         ry="26.458332" /></clipPath><clipPath
       clipPathUnits="userSpaceOnUse"
       id="clipPath575"><rect
         style="fill:#6b21a8;fill-opacity:1;stroke-width:0.0713646"
         id="rect577"
         width="339.48129"
         height="339.48129"
         x="-158.28917"
         y="16.807848"
         rx="33.152473"
         ry="33.152473"
         clip-path="url(#clipPath516-6)"
         transform="matrix(0.85456852,0,0,0.85456852,1.6653694,27.130071)" /></clipPath><clipPath
       clipPathUnits="userSpaceOnUse"
       id="clipPath579"><rect
         style="fill:#6b21a8;fill-opacity:1;stroke-width:0.0713646"
         id="rect581"
         width="339.48129"
         height="339.48129"
         x="-158.28917"
         y="16.807848"
         rx="33.152473"
         ry="33.152473"
         clip-path="url(#clipPath516-6)"
         transform="matrix(0.85456852,0,0,0.85456852,1.6654277,27.130132)" /></clipPath><clipPath
       clipPathUnits="userSpaceOnUse"
       id="clipPath583"><rect
         style="fill:#6b21a8;fill-opacity:1;stroke-width:0.0713646"
         id="rect585"
         width="339.48129"
         height="339.48129"
         x="-158.28917"
         y="16.807848"
         rx="33.152473"
         ry="33.152473"
         clip-path="url(#clipPath516-6)"
         transform="matrix(0.85456852,0,0,0.85456852,1.6654277,27.130132)" /></clipPath><clipPath
       clipPathUnits="userSpaceOnUse"
       id="clipPath575-6"><rect
         style="fill:#6b21a8;fill-opacity:1;stroke-width:0.0713646"
         id="rect577-7"
         width="339.48129"
         height="339.48129"
         x="-158.28917"
         y="16.807848"
         rx="33.152473"
         ry="33.152473"
         clip-path="url(#clipPath516-6)"
         transform="matrix(0.85456852,0,0,0.85456852,1.6653694,27.130071)" /></clipPath><clipPath
       clipPathUnits="userSpaceOnUse"
       id="clipPath579-4"><rect
         style="fill:#6b21a8;fill-opacity:1;stroke-width:0.0713646"
         id="rect581-5"
         width="339.48129"
         height="339.48129"
         x="-158.28917"
         y="16.807848"
         rx="33.152473"
         ry="33.152473"
         clip-path="url(#clipPath516-6)"
         transform="matrix(0.85456852,0,0,0.85456852,1.6654277,27.130132)" /></clipPath><clipPath
       clipPathUnits="userSpaceOnUse"
       id="clipPath583-3"><rect
         style="fill:#6b21a8;fill-opacity:1;stroke-width:0.0713646"
         id="rect585-4"
         width="339.48129"
         height="339.48129"
         x="-158.28917"
         y="16.807848"
         rx="33.152473"
         ry="33.152473"
         clip-path="url(#clipPath516-6)"
         transform="matrix(0.85456852,0,0,0.85456852,1.6654277,27.130132)" /></clipPath><clipPath
       clipPathUnits="userSpaceOnUse"
       id="clipPath579-2"><rect
         style="fill:#6b21a8;fill-opacity:1;stroke-width:0.0713646"
         id="rect581-57"
         width="339.48129"
         height="339.48129"
         x="-158.28917"
         y="16.807848"
         rx="33.152473"
         ry="33.152473"
         clip-path="url(#clipPath516-6)"
         transform="matrix(0.85456852,0,0,0.85456852,1.6654277,27.130132)" /></clipPath><clipPath
       clipPathUnits="userSpaceOnUse"
       id="clipPath575-8"><rect
         style="fill:#6b21a8;fill-opacity:1;stroke-width:0.0713646"
         id="rect577-6"
         width="339.48129"
         height="339.48129"
         x="-158.28917"
         y="16.807848"
         rx="33.152473"
         ry="33.152473"
         clip-path="url(#clipPath516-6)"
         transform="matrix(0.85456852,0,0,0.85456852,1.6653694,27.130071)" /></clipPath></defs><g
     inkscape:label="Capa 1"
     inkscape:groupmode="layer"
     id="layer1"
     transform="translate(124.01517,-51.081848)"><path
       id="rect395-7"
       clip-path="none"
       style="fill:#2d1650;stroke:#6b21a8;stroke-width:2.55403;stroke-opacity:1"
       d="m 4.3227258,163.12882 c -12.850083,0.004 -25.1007638,3.75075 -33.7360298,10.31747 l -1.164142,1.43073 c -2.56556,3.15279 -6.000155,9.43013 -7.387141,13.502 l -1.408682,4.13718 -0.147419,25.96727 c -0.145018,25.52701 -0.130107,25.98527 0.90445,27.01981 1.041213,1.03996 1.499941,1.05256 43.1779856,1.05256 H 46.687871 l 1.05324,-1.13245 c 0.874437,-0.93869 1.054617,-1.82074 1.054617,-5.17113 0,-6.43318 0.901981,-6.10796 -16.962731,-6.10796 -15.648026,0 -16.133364,-0.07 -16.133364,-2.32691 0,-2.25689 0.485338,-2.32692 16.133364,-2.32692 17.663595,0 16.962731,0.22773 16.962731,-5.51901 0,-5.62658 0.90062,-5.34058 -16.857338,-5.34058 -14.833533,0 -15.161349,-0.0227 -15.911559,-1.09388 -0.776616,-1.10875 -0.599271,-2.47259 0.411239,-3.16454 0.305155,-0.20901 7.235174,-0.38315 15.401127,-0.38783 14.60267,-0.008 14.864881,-0.027 15.901914,-1.14002 0.861733,-0.92501 1.054617,-1.82262 1.054617,-4.91282 0,-6.13208 0.818544,-5.84896 -16.962731,-5.84896 -15.648026,0 -16.133364,-0.07 -16.133364,-2.3269 0,-2.26297 0.457255,-2.32761 16.650684,-2.32761 h 15.41077 v -1.95907 c 0,-5.14745 -3.737312,-14.06434 -8.214439,-19.59823 l -2.488785,-3.07568 C 28.496468,166.644 16.682288,163.15533 4.3227183,163.12882 Z m 0.2941359,88.59815 c -37.1315137,0 -42.0828737,0.092 -43.1001467,0.80458 -1.087237,0.76159 -1.149676,1.16781 -1.149676,7.52077 0,13.47161 3.448274,22.64226 11.921786,31.70049 11.062582,11.82594 27.23971737,16.63895 42.706819,12.70846 10.854037,-2.75824 20.063696,-9.51473 26.618915,-19.53005 4.814941,-7.35643 6.838202,-14.69766 6.891174,-25.00221 0.02678,-5.21807 -0.09927,-6.16324 -0.953357,-7.11022 l -0.985732,-1.09182 z"
       sodipodi:nodetypes="sccccccsccssssssssccsssscsccsssssssssccs" /><path
       id="rect362-4-0"
       clip-path="none"
       style="fill:#6b21a8;fill-opacity:1;stroke-width:0.111318"
       d="m 3.8218255,51.081872 c -0.895533,0 -10.4761566,32.165303 -13.7473549,46.153572 -0.5154836,2.204236 -1.0701606,4.007306 -1.2321806,4.007306 -0.162032,0 -1.087559,-2.850379 -2.056614,-6.334482 -3.627342,-13.041663 -11.800787,-36.836669 -11.907697,-34.665746 -0.01753,0.345749 -0.616134,4.47916 -1.330446,9.185536 -1.803405,11.881829 -2.763075,20.931873 -3.170759,29.916329 l -0.347131,7.670673 -9.615617,-19.305903 -9.613704,-19.303982 -0.158253,12.152728 c -0.08656,6.683823 0.08902,17.484666 0.389891,24.001727 0.300764,6.51709 0.468228,11.92821 0.372654,12.02383 -0.09558,0.0956 -2.365219,-3.0148 -5.043597,-6.91005 -10.257904,-14.918521 -14.501713,-20.994901 -15.099496,-21.617761 -0.318766,-0.332105 -0.382694,0.131033 -0.178677,1.29344 0.174725,0.995492 0.904213,7.511043 1.620786,14.479271 0.716598,6.96824 1.408068,12.96047 1.537846,13.31599 0.129396,0.35554 0.123234,0.64641 -0.0147,0.64641 -0.138966,0 -3.041314,-2.08853 -6.4487,-4.64095 -3.407409,-2.55241 -6.195365,-4.52038 -6.195365,-4.37423 0,0.14617 0.462857,1.17227 1.028622,2.28124 0.565766,1.109 3.036425,7.09342 5.490264,13.29686 4.706259,11.89773 6.491966,15.7446 10.27287,22.13971 6.99467,11.83104 18.148813,21.64047 29.113584,25.604 l 3.242217,1.17093 c -0.69695,0.8577 -1.043551,1.28385 -0.143571,0.1774 8.635414,-6.56651 20.8860669,-10.3129 33.7360241,-10.3169 12.3582799,0.0263 24.1714769,3.51404 32.7329249,9.66412 l -0.0983,-0.12127 3.230091,-1.07456 c 1.776522,-0.5912 5.050412,-2.11204 7.274404,-3.37942 13.343535,-7.60415 22.376359,-19.21316 30.587617,-39.3086 1.627049,-3.98182 4.168321,-10.18257 5.647239,-13.77862 l 2.690254,-6.53804 -3.929457,2.8836 c -2.160543,1.58601 -4.935685,3.69939 -6.167297,4.69581 l -2.239107,1.8116 0.28523,-1.77712 c 0.561343,-3.50511 2.922498,-27.524102 2.725349,-27.721249 -0.0715,-0.07159 -4.626144,6.271657 -10.122915,14.095129 -5.496771,7.82347 -10.05453,14.15575 -10.128015,14.07151 -0.07347,-0.0842 0.06162,-2.59702 0.299911,-5.58343 0.527969,-6.6174 1.165575,-42.404698 0.755519,-42.404698 -0.293414,0 -12.487169,24.342111 -16.837703,33.613518 l -2.304206,4.91278 -0.640014,-8.989647 C 37.483799,89.76043 36.439495,80.997744 34.59444,68.922654 c -0.434579,-2.844165 -0.791451,-5.798186 -0.793167,-6.563559 -0.0061,-3.058356 -1.044453,-1.66486 -3.25306,4.366559 -2.954975,8.069708 -6.940931,19.895926 -9.715797,28.828993 l -2.168291,6.980883 -0.911858,-4.477594 C 16.44443,91.637406 12.186914,76.440443 7.964381,63.119079 5.9610118,56.798788 4.3220726,51.504623 4.3220726,51.354319 c 0,-0.150212 -0.2252667,-0.272246 -0.5002847,-0.272471 z"
       sodipodi:nodetypes="ccscccccccccccssscssssscccccccccccccccccsscscccscccccsscc" /></g></svg>
